<svg xmlns="http://www.w3.org/2000/svg" xmlns:xlink="http://www.w3.org/1999/xlink" width="500" zoomAndPan="magnify" viewBox="0 0 375 374.999991" height="500" preserveAspectRatio="xMidYMid meet" version="1.0"><defs><clipPath id="2d255f5dfb"><path d="M 77 164 L 361.8125 164 L 361.8125 209 L 77 209 Z M 77 164 " clip-rule="nonzero"/></clipPath><clipPath id="b7cd2c2336"><path d="M 131 56 L 361.8125 56 L 361.8125 101 L 131 101 Z M 131 56 " clip-rule="nonzero"/></clipPath><clipPath id="2ffa92b981"><path d="M 251 110 L 361.8125 110 L 361.8125 155 L 251 155 Z M 251 110 " clip-rule="nonzero"/></clipPath><clipPath id="f13b350655"><path d="M 4.8125 164 L 56 164 L 56 209 L 4.8125 209 Z M 4.8125 164 " clip-rule="nonzero"/></clipPath><clipPath id="9fc63a1d8b"><path d="M 142 218 L 361.8125 218 L 361.8125 263 L 142 263 Z M 142 218 " clip-rule="nonzero"/></clipPath><clipPath id="338ba7096a"><path d="M 164 273 L 361.8125 273 L 361.8125 318 L 164 318 Z M 164 273 " clip-rule="nonzero"/></clipPath></defs><g clip-path="url(#2d255f5dfb)"><path fill="#0091ff" d="M 485.929688 164.800781 L 255.726562 164.800781 L 245.894531 181.796875 L 223.132812 181.796875 L 213.304688 164.800781 C 204.828125 164.800781 98.617188 164.800781 90.140625 164.800781 L 77.425781 186.820312 L 90.140625 208.839844 C 98.617188 208.839844 204.828125 208.839844 213.304688 208.839844 L 223.132812 191.84375 L 245.894531 191.84375 L 255.726562 208.839844 L 485.929688 208.839844 C 488.464844 194.292969 488.464844 179.394531 485.929688 164.800781 Z M 485.929688 164.800781 " fill-opacity="1" fill-rule="nonzero"/></g><g clip-path="url(#b7cd2c2336)"><path fill="#0091ff" d="M 169.875 100.574219 L 179.707031 83.582031 L 202.46875 83.582031 L 212.296875 100.574219 L 455 100.574219 C 409.386719 49.152344 358.222656 56.492188 296.535156 56.492188 L 212.296875 56.492188 L 202.46875 73.488281 L 179.707031 73.488281 L 169.875 56.492188 L 144.445312 56.492188 L 131.734375 78.511719 L 144.445312 100.53125 L 169.875 100.53125 Z M 169.875 100.574219 " fill-opacity="1" fill-rule="nonzero"/></g><g clip-path="url(#2ffa92b981)"><path fill="#0091ff" d="M 321.917969 127.664062 L 299.15625 127.664062 L 289.324219 110.667969 L 263.898438 110.667969 L 251.183594 132.6875 L 263.898438 154.707031 L 289.324219 154.707031 L 299.15625 137.710938 L 321.917969 137.710938 L 331.746094 154.707031 L 483.789062 154.707031 C 479.683594 138.628906 472.5625 123.730469 463.082031 110.625 L 331.746094 110.625 Z M 321.917969 127.664062 " fill-opacity="1" fill-rule="nonzero"/></g><g clip-path="url(#f13b350655)"><path fill="#0091ff" d="M 17.527344 164.800781 L 4.8125 186.820312 L 17.527344 208.882812 L 42.996094 208.882812 L 55.710938 186.820312 L 42.996094 164.800781 Z M 17.527344 164.800781 " fill-opacity="1" fill-rule="nonzero"/></g><path fill="#0091ff" d="M 178.570312 132.6875 L 191.285156 154.707031 L 216.753906 154.707031 L 229.46875 132.6875 L 216.753906 110.667969 L 191.285156 110.667969 Z M 178.570312 132.6875 " fill-opacity="1" fill-rule="nonzero"/><path fill="#0091ff" d="M 104.425781 273.066406 L 91.667969 295.128906 L 104.425781 317.148438 L 129.855469 317.148438 L 142.570312 295.128906 L 129.855469 273.066406 Z M 104.425781 273.066406 " fill-opacity="1" fill-rule="nonzero"/><g clip-path="url(#9fc63a1d8b)"><path fill="#0091ff" d="M 213.304688 235.929688 L 190.539062 235.929688 L 180.710938 218.933594 L 155.28125 218.933594 L 142.570312 240.953125 L 155.28125 262.972656 L 180.710938 262.972656 L 190.539062 245.976562 L 213.304688 245.976562 L 223.132812 262.972656 L 463.039062 262.972656 C 472.519531 249.867188 479.640625 234.96875 483.746094 218.890625 C 404.097656 218.890625 302.738281 218.890625 223.089844 218.890625 Z M 213.304688 235.929688 " fill-opacity="1" fill-rule="nonzero"/></g><g clip-path="url(#338ba7096a)"><path fill="#0091ff" d="M 278.488281 290.105469 L 255.726562 290.105469 L 245.894531 273.109375 C 222.957031 273.109375 199.976562 273.109375 176.996094 273.109375 L 164.28125 295.128906 L 176.996094 317.148438 C 199.976562 317.148438 222.914062 317.148438 245.894531 317.148438 L 255.726562 300.152344 L 278.488281 300.152344 L 288.320312 317.148438 C 353.460938 317.148438 408.207031 325.84375 455 273.066406 L 288.320312 273.066406 Z M 278.488281 290.105469 " fill-opacity="1" fill-rule="nonzero"/></g><path stroke-linecap="round" transform="matrix(0, 0.75, -0.75, 0, 370.183574, 30.878904)" fill="none" stroke-linejoin="miter" d="M 8.500003 8.499974 L 409.171905 8.499974 " stroke="#0091ff" stroke-width="17" stroke-opacity="1" stroke-miterlimit="4"/></svg>